<svg xmlns="http://www.w3.org/2000/svg" width="24" height="24" viewBox="0 0 24 24" fill="none">
  <mask id="mask0_1816_3816" style="mask-type:alpha" maskUnits="userSpaceOnUse" x="0" y="0" width="24" height="24">
    <rect width="24" height="24" fill="#D9D9D9"/>
  </mask>
  <g mask="url(#mask0_1816_3816)">
    <path d="M15.4464 12.6454L14.6501 11.8491C14.8001 10.9761 14.5527 10.2204 13.9079 9.58186C13.2631 8.94336 12.5105 8.69911 11.6501 8.84911L10.8539 8.05286C11.0219 7.98369 11.1972 7.93178 11.3799 7.89711C11.5626 7.86261 11.7693 7.84536 12.0001 7.84536C13.0193 7.84536 13.8831 8.19953 14.5914 8.90786C15.2997 9.61619 15.6539 10.4799 15.6539 11.4991C15.6539 11.7299 15.6366 11.9431 15.6021 12.1386C15.5675 12.3341 15.5156 12.503 15.4464 12.6454ZM18.6079 15.7184L17.8501 15.0491C18.4835 14.5658 19.046 14.0366 19.5376 13.4616C20.0293 12.8866 20.4501 12.2324 20.8001 11.4991C19.9668 9.81578 18.771 8.47828 17.2126 7.48661C15.6543 6.49494 13.9168 5.99911 12.0001 5.99911C11.5168 5.99911 11.0418 6.03244 10.5751 6.09911C10.1085 6.16578 9.65015 6.26578 9.20015 6.39911L8.4194 5.61836C9.00023 5.39919 9.59123 5.24119 10.1924 5.14436C10.7937 5.04753 11.3963 4.99911 12.0001 4.99911C14.1706 4.99911 16.1559 5.59561 17.9559 6.78861C19.7559 7.98144 21.0783 9.55161 21.9231 11.4991C21.5655 12.3029 21.1126 13.0584 20.5646 13.7654C20.0165 14.4725 19.3642 15.1235 18.6079 15.7184ZM19.7231 21.1376L15.8309 17.2569C15.3886 17.453 14.8396 17.6258 14.1839 17.7751C13.5281 17.9244 12.8001 17.9991 12.0001 17.9991C9.81681 17.9991 7.83156 17.4026 6.0444 16.2096C4.25723 15.0168 2.93482 13.4466 2.07715 11.4991C2.46548 10.6158 2.97765 9.78853 3.61365 9.01736C4.24948 8.24619 4.92832 7.59911 5.65015 7.07611L2.86165 4.27611L3.5694 3.56836L20.4309 20.4299L19.7231 21.1376ZM6.3579 7.78361C5.78473 8.19144 5.19882 8.72736 4.60015 9.39136C4.00148 10.0555 3.53482 10.7581 3.20015 11.4991C4.03348 13.1824 5.22932 14.5199 6.78765 15.5116C8.34598 16.5033 10.0835 16.9991 12.0001 16.9991C12.5771 16.9991 13.1586 16.943 13.7444 16.8309C14.3302 16.7187 14.7706 16.6055 15.0656 16.4914L13.4346 14.8491C13.277 14.9376 13.0571 15.0104 12.7751 15.0674C12.4931 15.1244 12.2348 15.1529 12.0001 15.1529C10.981 15.1529 10.1172 14.7987 9.4089 14.0904C8.70057 13.382 8.3464 12.5183 8.3464 11.4991C8.3464 11.2773 8.3749 11.0285 8.4319 10.7529C8.4889 10.4774 8.56165 10.2479 8.65015 10.0646L6.3579 7.78361Z" fill="#46464A"/>
  </g>
</svg>