<?xml version="1.0" encoding="utf-8"?>
<!-- Generator: Adobe Illustrator 27.9.0, SVG Export Plug-In . SVG Version: 6.00 Build 0)  -->
<svg version="1.1" id="Layer_1" xmlns="http://www.w3.org/2000/svg" xmlns:xlink="http://www.w3.org/1999/xlink" x="0px" y="0px"
	 viewBox="0 0 138.34 96.94" style="enable-background:new 0 0 138.34 96.94;" xml:space="preserve">
<style type="text/css">
	.st0{clip-path:url(#SVGID_00000083080775389790014280000007990447997477525377_);}
	.st1{clip-path:url(#SVGID_00000083080775389790014280000007990447997477525377_);fill:#EF4123;}
	.st2{clip-path:url(#SVGID_00000083080775389790014280000007990447997477525377_);fill:#F58232;}
	.st3{clip-path:url(#SVGID_00000083080775389790014280000007990447997477525377_);fill:#FFCC32;}
	.st4{clip-path:url(#SVGID_00000083080775389790014280000007990447997477525377_);fill:#6C3F99;}
	.st5{clip-path:url(#SVGID_00000083080775389790014280000007990447997477525377_);fill:#2B93D1;}
	.st6{clip-path:url(#SVGID_00000083080775389790014280000007990447997477525377_);fill:#50B848;}
</style>
<g>
	<defs>
		<rect id="SVGID_1_" y="0" width="138.34" height="96.94"/>
	</defs>
	<clipPath id="SVGID_00000000209432182195253790000006869949404144955580_">
		<use xlink:href="#SVGID_1_"  style="overflow:visible;"/>
	</clipPath>
	<path style="clip-path:url(#SVGID_00000000209432182195253790000006869949404144955580_);" d="M19.61,80.18
		c0,5.75-3.57,9.58-8.78,9.58c-1.85,0-3.44-0.59-4.74-1.64v8.82H0V70.9h5.67l0.17,1.39c1.3-1.13,2.98-1.81,5-1.81
		C16.04,70.52,19.61,74.55,19.61,80.18 M13.48,80.18c0-2.48-1.51-4.45-3.78-4.45c-2.69,0-3.86,1.72-3.86,4.41
		c0,2.73,1.43,4.37,3.86,4.37C11.97,84.51,13.48,82.78,13.48,80.18"/>
	<path style="clip-path:url(#SVGID_00000000209432182195253790000006869949404144955580_);" d="M36.37,70.65l-0.38,4.91
		c-0.21-0.04-0.42-0.08-1.13-0.08c-3.23,0-5.46,1.72-5.46,4.16v9.74h-6.09V70.9h5.67l0.25,2.27c1.09-1.68,2.9-2.69,5.58-2.69
		C35.45,70.48,36.03,70.56,36.37,70.65"/>
	<path style="clip-path:url(#SVGID_00000000209432182195253790000006869949404144955580_);" d="M57.58,80.1
		c0,5.63-4.03,9.7-9.95,9.7c-5.96,0-9.91-4.07-9.91-9.7c0-5.54,3.95-9.62,9.91-9.62C53.55,70.48,57.58,74.55,57.58,80.1 M51.45,80.1
		c0-2.56-1.51-4.37-3.82-4.37c-2.35,0-3.78,1.81-3.78,4.37c0,2.65,1.43,4.45,3.78,4.45C49.94,84.55,51.45,82.74,51.45,80.1"/>
	<path style="clip-path:url(#SVGID_00000000209432182195253790000006869949404144955580_);" d="M75.22,88.66
		c-1.18,0.67-3.07,1.13-5.29,1.13c-4.58,0-7.56-2.44-7.56-6.76v-7.18h-2.65V70.9h2.65v-4.75h6.09v4.75h5.71v4.91h-5.71v6.43
		c0,1.68,1.01,2.27,2.48,2.27c0.88,0,1.72-0.12,2.81-0.59L75.22,88.66z"/>
	<path style="clip-path:url(#SVGID_00000000209432182195253790000006869949404144955580_);" d="M95.63,81.78h-12.6
		c0.59,1.76,2.18,2.94,4.7,2.94c2.02,0,3.15-0.42,4.16-1.09l2.48,3.95c-1.43,1.05-3.57,2.23-7.06,2.23c-6.43,0-10.5-4.07-10.5-9.7
		c0-5.75,3.82-9.62,9.53-9.62c5.8,0,9.45,3.44,9.45,9.66C95.8,80.68,95.71,81.44,95.63,81.78 M83.03,78.16h7.18
		c-0.38-1.76-1.47-2.69-3.49-2.69C84.92,75.48,83.53,76.27,83.03,78.16"/>
	<path style="clip-path:url(#SVGID_00000000209432182195253790000006869949404144955580_);" d="M115.75,78.63v10.75h-5.8l-0.04-1.09
		c-1.26,0.97-2.94,1.51-4.7,1.51c-4.2,0-7.27-2.35-7.27-6.13c0-4.03,3.15-6.17,7.94-6.17c1.47,0,2.86,0.34,3.95,1.05v-0.21
		c0-2.06-1.34-3.23-4.7-3.23c-2.1,0-3.28,0.42-4.33,0.8l0.5-4.79c0.84-0.25,2.56-0.63,5.21-0.63
		C112.68,70.48,115.75,73.92,115.75,78.63 M109.82,83.67c0-0.92-0.71-2.14-2.9-2.14c-1.72,0-2.86,0.84-2.86,2.14s1.13,2.1,2.86,2.1
		C108.73,85.77,109.82,84.88,109.82,83.67"/>
	<path style="clip-path:url(#SVGID_00000000209432182195253790000006869949404144955580_);" d="M138.34,78.12v11.25h-6.13v-11
		c0-1.47-1.01-2.69-3.02-2.69c-1.72,0-2.98,1.09-2.98,2.73v10.96h-6.09V70.9h5.71l0.17,1.6c0.97-1.22,2.56-2.02,5-2.02
		C135.82,70.48,138.34,73.33,138.34,78.12"/>
	<path style="clip-path:url(#SVGID_00000000209432182195253790000006869949404144955580_);" d="M98.93,29.76
		c0,16.44-13.33,29.76-29.76,29.76c-16.44,0-29.76-13.33-29.76-29.76S52.73,0,69.17,0C85.61,0,98.93,13.33,98.93,29.76"/>
	<path style="clip-path:url(#SVGID_00000000209432182195253790000006869949404144955580_);fill:#EF4123;" d="M69.52,20.98
		c-4.93,0-8.92,4-8.92,8.92s3.99,8.92,8.92,8.92c4.93,0,8.92-3.99,8.92-8.92S74.45,20.98,69.52,20.98 M69.52,34.31
		c-2.44,0-4.41-1.97-4.41-4.41c0-2.44,1.97-4.41,4.41-4.41c2.44,0,4.41,1.97,4.41,4.41C73.93,32.34,71.95,34.31,69.52,34.31"/>
	<path style="clip-path:url(#SVGID_00000000209432182195253790000006869949404144955580_);fill:#F58232;" d="M76.81,3.87
		c-1.86-1.89-4.44-3.06-7.3-3.06c-2.86,0-5.44,1.17-7.3,3.06H76.81z"/>
	<path style="clip-path:url(#SVGID_00000000209432182195253790000006869949404144955580_);fill:#FFCC32;" d="M95.11,37.04
		c1.89-1.86,3.06-4.44,3.06-7.3c0-2.86-1.17-5.44-3.06-7.3V37.04z"/>
	<path style="clip-path:url(#SVGID_00000000209432182195253790000006869949404144955580_);fill:#6C3F99;" d="M43.59,22.44
		c-1.89,1.86-3.06,4.44-3.06,7.3c0,2.86,1.17,5.44,3.06,7.3V22.44z"/>
	<path style="clip-path:url(#SVGID_00000000209432182195253790000006869949404144955580_);fill:#2B93D1;" d="M62.22,55.47
		c1.86,1.89,4.44,3.06,7.3,3.06c2.86,0,5.44-1.17,7.3-3.06H62.22z"/>
	<path style="clip-path:url(#SVGID_00000000209432182195253790000006869949404144955580_);fill:#2B93D1;" d="M78.17,9.07
		c-1.82-2.86-5.01-4.77-8.65-4.77c-3.64,0-6.83,1.91-8.65,4.77H78.17z"/>
	<path style="clip-path:url(#SVGID_00000000209432182195253790000006869949404144955580_);fill:#6C3F99;" d="M89.92,38.39
		c2.86-1.82,4.77-5.01,4.77-8.65c0-3.64-1.91-6.83-4.77-8.65V38.39z"/>
	<path style="clip-path:url(#SVGID_00000000209432182195253790000006869949404144955580_);fill:#FFCC32;" d="M48.78,21.09
		c-2.86,1.82-4.77,5.01-4.77,8.65c0,3.64,1.91,6.83,4.77,8.65V21.09z"/>
	<path style="clip-path:url(#SVGID_00000000209432182195253790000006869949404144955580_);fill:#50B848;" d="M60.87,50.27
		c1.82,2.86,5.01,4.77,8.65,4.77c3.64,0,6.83-1.91,8.65-4.77H60.87z"/>
	<path style="clip-path:url(#SVGID_00000000209432182195253790000006869949404144955580_);fill:#6C3F99;" d="M59.36,44.2
		c-2.46-0.15-4.44-2.03-4.72-4.45h-5.19c0.31,5.26,4.57,9.45,9.87,9.63L59.36,44.2z"/>
	<path style="clip-path:url(#SVGID_00000000209432182195253790000006869949404144955580_);fill:#F58232;" d="M83.92,39.61
		c-0.15,2.46-2.04,4.44-4.45,4.72v5.19c5.26-0.3,9.45-4.57,9.63-9.87L83.92,39.61z"/>
	<path style="clip-path:url(#SVGID_00000000209432182195253790000006869949404144955580_);fill:#FFCC32;" d="M79.18,14.95
		c2.45,0.15,4.44,2.04,4.72,4.45h5.19c-0.31-5.26-4.57-9.45-9.87-9.63L79.18,14.95z"/>
	<path style="clip-path:url(#SVGID_00000000209432182195253790000006869949404144955580_);fill:#EF4123;" d="M54.63,19.54
		c0.15-2.45,2.03-4.44,4.45-4.72V9.63c-5.26,0.31-9.45,4.57-9.63,9.87L54.63,19.54z"/>
	<path style="clip-path:url(#SVGID_00000000209432182195253790000006869949404144955580_);fill:#FFCC32;" d="M49.07,10.94l-0.2,8.37
		l-4.83,0.18l0.1-2.46C44.14,17.03,45.82,13.13,49.07,10.94"/>
	<path style="clip-path:url(#SVGID_00000000209432182195253790000006869949404144955580_);fill:#2B93D1;" d="M89.64,10.87l0.2,8.37
		l4.83,0.18l-0.1-2.46C94.57,16.96,92.88,13.06,89.64,10.87"/>
	<path style="clip-path:url(#SVGID_00000000209432182195253790000006869949404144955580_);fill:#FFCC32;" d="M89.64,47.79l0.2-8.37
		l4.83-0.18l-0.1,2.46C94.57,41.71,92.88,45.6,89.64,47.79"/>
	<path style="clip-path:url(#SVGID_00000000209432182195253790000006869949404144955580_);fill:#2B93D1;" d="M49.07,47.86l-0.2-8.37
		l-4.83-0.18l0.1,2.46C44.14,41.77,45.82,45.67,49.07,47.86"/>
	<path style="clip-path:url(#SVGID_00000000209432182195253790000006869949404144955580_);fill:#50B848;" d="M50.85,9.1
		c0,0,3.77-4.2,6.19-4.83h2.79L59.81,9.1H50.85z"/>
	<path style="clip-path:url(#SVGID_00000000209432182195253790000006869949404144955580_);fill:#6C3F99;" d="M88.33,9.24
		c0,0-3.77-4.2-6.19-4.83h-2.79l0.03,4.83H88.33z"/>
	<path style="clip-path:url(#SVGID_00000000209432182195253790000006869949404144955580_);fill:#EF4123;" d="M88.33,49.88
		c0,0-3.77,4.2-6.19,4.83h-2.79l0.03-4.83H88.33z"/>
	<path style="clip-path:url(#SVGID_00000000209432182195253790000006869949404144955580_);fill:#F58232;" d="M50.85,49.74
		c0,0,3.77,4.2,6.19,4.83h2.79l-0.02-4.83H50.85z"/>
	
		<rect x="60.66" y="30.27" style="clip-path:url(#SVGID_00000000209432182195253790000006869949404144955580_);fill:#EF4123;" width="4.38" height="17.41"/>
	<path style="clip-path:url(#SVGID_00000000209432182195253790000006869949404144955580_);fill:#F58232;" d="M64.47,19.37
		c0.14-2.67,2.35-4.79,5.05-4.79s4.9,2.12,5.05,4.79h5.18C79.6,13.84,75.08,9.4,69.52,9.4c-5.56,0-10.08,4.44-10.23,9.97H64.47z"/>
	<path style="clip-path:url(#SVGID_00000000209432182195253790000006869949404144955580_);fill:#50B848;" d="M79.62,24.69
		c2.67,0.14,4.79,2.35,4.79,5.05s-2.12,4.9-4.79,5.05v5.18c5.53-0.15,9.97-4.66,9.97-10.23c0-5.56-4.44-10.08-9.97-10.23V24.69z"/>
	<path style="clip-path:url(#SVGID_00000000209432182195253790000006869949404144955580_);fill:#2B93D1;" d="M59.08,34.79
		c-2.67-0.14-4.79-2.34-4.79-5.05c0-2.7,2.12-4.9,4.79-5.05v-5.18c-5.53,0.15-9.97,4.67-9.97,10.23c0,5.56,4.44,10.08,9.97,10.23
		V34.79z"/>
	<path style="clip-path:url(#SVGID_00000000209432182195253790000006869949404144955580_);fill:#FFCC32;" d="M74.36,39.61
		c-0.15,2.46-2.04,4.44-4.45,4.72v5.19c5.26-0.3,9.45-4.57,9.63-9.87L74.36,39.61z"/>
</g>
</svg>
