<svg width="401" height="337" viewBox="0 0 401 337" fill="none" xmlns="http://www.w3.org/2000/svg">
<path d="M255.853 3.48104L399.965 4.31418C394.397 158.495 266.933 281.418 110.879 280.521C-45.1521 279.612 -171.198 155.239 -174.977 1.00584L-30.8638 1.83895C-26.7518 76.8556 35.2538 136.663 111.716 137.104C188.181 137.545 250.874 78.4397 255.853 3.48104Z" fill="white" stroke="#F07E26" stroke-width="2"/>
<path d="M156.5 165.94C179.176 165.94 200.923 174.948 216.958 190.982C232.992 207.017 242 228.764 242 251.44C242 274.116 232.992 295.863 216.958 311.898C200.923 327.932 179.176 336.94 156.5 336.94L156.5 251.44L156.5 165.94Z" fill="#FFCD1C"/>
<path d="M240.5 162.94C263.176 162.94 284.923 171.948 300.958 187.982C316.992 204.017 326 225.764 326 248.44C326 271.116 316.992 292.863 300.958 308.898C284.923 324.932 263.176 333.94 240.5 333.94L240.5 248.44L240.5 162.94Z" fill="#FFCD1C"/>
</svg>
